HIERARCHY
ROOT Hips
{
	OFFSET 0.000000 0.000000 0.000000
	CHANNELS 6 Xposition Yposition Zposition Xrotation Yrotation Zrotation
	JOINT LeftUpLeg_virtual
	{
		OFFSET 0.000000 0.000000 0.000000
		CHANNELS 3 Xrotation Yrotation Zrotation
		JOINT LeftUpLeg
		{
			OFFSET 11.394100 -6.187798 -0.413800
			CHANNELS 3 Xrotation Yrotation Zrotation
			JOINT LeftLeg
			{
				OFFSET 0.430247 -32.302673 3.732800
				CHANNELS 3 Xrotation Yrotation Zrotation
				JOINT LeftFoot
				{
					OFFSET -0.430247 -48.264931 -6.423300
					CHANNELS 3 Xrotation Yrotation Zrotation
					JOINT LeftToeBase
					{
						OFFSET 4.230900 -16.068199 23.438400
						CHANNELS 3 Xrotation Yrotation Zrotation
						JOINT LeftToe_End
						{
							OFFSET 4.510700 0.695400 19.974600
							CHANNELS 3 Xrotation Yrotation Zrotation
							End Site
							{
								OFFSET 0 0 0
							}
						}
					}
				}
			}
		}
	}
	JOINT RightUpLeg_virtual
	{
		OFFSET 0.000000 0.000000 0.000000
		CHANNELS 3 Xrotation Yrotation Zrotation
		JOINT RightUpLeg
		{
			OFFSET -11.333700 -6.187798 -0.413800
			CHANNELS 3 Xrotation Yrotation Zrotation
			JOINT RightLeg
			{
				OFFSET -0.430392 -32.302628 3.733000
				CHANNELS 3 Xrotation Yrotation Zrotation
				JOINT RightFoot
				{
					OFFSET 0.430392 -48.264973 -6.423500
					CHANNELS 3 Xrotation Yrotation Zrotation
					JOINT RightToeBase
					{
						OFFSET -4.230900 -16.068199 23.438400
						CHANNELS 3 Xrotation Yrotation Zrotation
						JOINT RightToe_End
						{
							OFFSET -4.510700 0.695400 19.974600
							CHANNELS 3 Xrotation Yrotation Zrotation
							End Site
							{
								OFFSET 0 0 0
							}
						}
					}
				}
			}
		}
	}
	JOINT Spine_virtual
	{
		OFFSET 0.000000 0.000000 0.000000
		CHANNELS 3 Xrotation Yrotation Zrotation
		JOINT Spine
		{
			OFFSET -0.002400 12.777504 0.315300
			CHANNELS 3 Xrotation Yrotation Zrotation
			JOINT Spine1
			{
				OFFSET -0.002067 5.816869 0.032633
				CHANNELS 3 Xrotation Yrotation Zrotation
				JOINT Spine1_split
				{
					OFFSET -0.002067 5.816869 0.032633
					CHANNELS 3 Xrotation Yrotation Zrotation
					JOINT Spine2
					{
						OFFSET -0.002067 5.816869 0.032633
						CHANNELS 3 Xrotation Yrotation Zrotation
						JOINT Neck_virtual
						{
							OFFSET 0.000000 0.000000 0.000000
							CHANNELS 3 Xrotation Yrotation Zrotation
							JOINT Neck
							{
								OFFSET -0.003700 21.199493 -0.826900
								CHANNELS 3 Xrotation Yrotation Zrotation
								JOINT Head
								{
									OFFSET 0.000000 20.442200 4.834800
									CHANNELS 3 Xrotation Yrotation Zrotation
									JOINT HeadTop_End
									{
										OFFSET 0.000000 34.668396 4.968400
										CHANNELS 3 Xrotation Yrotation Zrotation
										End Site
										{
											OFFSET 0 0 0
										}
									}
								}
							}
						}
						JOINT LeftShoulder_virtual
						{
							OFFSET 0.000000 0.000000 0.000000
							CHANNELS 3 Xrotation Yrotation Zrotation
							JOINT LeftShoulder
							{
								OFFSET 3.288150 8.794197 -1.372250
								CHANNELS 3 Xrotation Yrotation Zrotation
								JOINT LeftShoulder_split
								{
									OFFSET 3.288150 8.794197 -1.372250
									CHANNELS 3 Xrotation Yrotation Zrotation
									JOINT LeftArm
									{
										OFFSET 11.953299 -2.279007 -0.146200
										CHANNELS 3 Xrotation Yrotation Zrotation
										JOINT LeftForeArm
										{
											OFFSET 18.448900 0.000000 0.000000
											CHANNELS 3 Xrotation Yrotation Zrotation
											JOINT LeftHand
											{
												OFFSET 29.527798 0.000000 0.000000
												CHANNELS 3 Xrotation Yrotation Zrotation
												End Site
												{
													OFFSET 0 0 0
												}
											}
										}
									}
								}
							}
						}
						JOINT RightShoulder_virtual
						{
							OFFSET 0.000000 0.000000 0.000000
							CHANNELS 3 Xrotation Yrotation Zrotation
							JOINT RightShoulder
							{
								OFFSET -3.249400 8.794197 -1.372250
								CHANNELS 3 Xrotation Yrotation Zrotation
								JOINT RightShoulder_split
								{
									OFFSET -3.249400 8.794197 -1.372250
									CHANNELS 3 Xrotation Yrotation Zrotation
									JOINT RightArm
									{
										OFFSET -11.953299 -2.279007 -0.146200
										CHANNELS 3 Xrotation Yrotation Zrotation
										JOINT RightForeArm
										{
											OFFSET -18.448900 0.000000 0.000000
											CHANNELS 3 Xrotation Yrotation Zrotation
											JOINT RightHand
											{
												OFFSET -29.527802 0.000000 0.000000
												CHANNELS 3 Xrotation Yrotation Zrotation
												End Site
												{
													OFFSET 0 0 0
												}
											}
										}
									}
								}
							}
						}
					}
				}
			}
		}
	}
}
MOTION
Frames: 10
Frame Time: 0.03333333
-2.447079 98.965019 -1.847561 0.000000 0.000000 0.000000 3.952052 -15.265661 9.925978 -38.341270 -5.617227 -11.045768 13.254635 -1.998229 -1.797667 24.058899 -23.063725 9.495503 -2.845638 -0.369671 2.185188 0.000000 0.000000 0.000000 3.412526 -12.611459 9.999963 3.383251 -15.271733 -7.443435 28.350367 3.866833 -5.959519 -5.919142 0.591013 6.381590 -28.187485 0.304238 -1.366289 0.000000 0.000000 0.000000 2.474442 -14.389769 8.564824 1.983752 4.920139 0.169009 5.874516 9.375159 2.196195 0.857229 -2.112940 0.788721 0.000000 0.000000 0.000000 4.768965 9.225861 2.238735 -2.213334 0.013843 -2.065195 -6.902574 -1.857829 -11.915141 0.000000 0.000000 0.000000 4.626763 9.511405 2.007123 0.540297 0.499861 -13.365798 0.918975 1.981031 -1.808054 -18.519757 -24.611502 -69.524919 0.492941 -65.727266 -1.469903 0.000000 0.000000 0.000000 4.927225 9.523249 2.285829 0.967588 11.504282 18.792031 -1.544166 2.782467 -1.730671 -44.316863 57.075765 70.963487 -2.441956 39.532425 1.050640 0.000000 0.000000 0.000000 
-2.246911 98.976974 -1.697845 0.000000 0.000000 0.000000 3.859876 -15.207684 9.727678 -38.330274 -6.151629 -10.999631 13.480829 -2.314555 -1.918918 24.059087 -23.429875 9.307641 -2.879720 -0.331295 2.286034 0.000000 0.000000 0.000000 3.469130 -12.489115 9.850160 3.589530 -15.384209 -7.476355 27.778012 3.794630 -5.826633 -6.415055 0.750797 6.308765 -27.524337 0.418620 -1.693867 0.000000 0.000000 0.000000 2.565921 -14.529626 8.335921 2.058367 4.944131 0.275329 5.858376 9.353677 2.190980 0.906829 -2.044942 0.767956 0.000000 0.000000 0.000000 4.801156 9.192332 2.240949 -2.201102 0.036731 -2.075857 -6.996436 -1.981390 -11.903456 0.000000 0.000000 0.000000 4.598534 9.477009 1.988341 0.526868 0.421663 -13.371059 1.038117 2.095363 -1.815192 -18.897358 -24.799956 -69.645588 0.617094 -65.852613 -1.378664 0.000000 0.000000 0.000000 4.922911 9.503034 2.285279 0.973713 11.397448 18.764078 -1.689027 2.669664 -1.697924 -44.594025 57.101987 71.131065 -2.415916 39.757001 1.037805 0.000000 0.000000 0.000000 
-2.057671 98.848915 -1.512333 0.000000 0.000000 0.000000 3.673049 -15.404969 9.293423 -38.565232 -6.526417 -10.819823 14.209082 -2.710232 -2.050907 23.837090 -23.957006 8.946785 -2.857718 -0.171983 2.286081 0.000000 0.000000 0.000000 3.607759 -12.782082 9.422162 4.101000 -15.356864 -7.236188 26.571635 3.817432 -5.658258 -7.316375 1.047040 5.997929 -26.510464 0.515593 -2.260751 0.000000 0.000000 0.000000 2.612123 -14.835967 7.943477 2.180359 5.034648 0.546017 5.833863 9.325812 2.179004 0.924483 -1.948708 0.723102 0.000000 0.000000 0.000000 4.825849 9.143162 2.229376 -2.456279 0.062105 -2.084958 -7.331983 -2.171398 -11.816191 0.000000 0.000000 0.000000 4.578398 9.429979 1.969072 0.507319 0.308538 -13.394571 1.050516 2.241046 -1.836758 -19.427320 -25.261176 -69.806398 0.753614 -65.907904 -1.291067 0.000000 0.000000 0.000000 4.905869 9.471054 2.278577 0.958020 11.299305 18.718936 -1.809834 2.544800 -1.608915 -44.857090 57.000005 71.221804 -2.415011 40.390389 1.055918 0.000000 0.000000 0.000000 
-1.946121 98.606674 -1.352493 0.000000 0.000000 0.000000 3.442079 -15.868534 8.712892 -38.867840 -6.782171 -10.556852 15.233434 -3.065210 -2.139311 23.349773 -24.498553 8.515838 -2.802230 0.100484 2.130393 0.000000 0.000000 0.000000 3.809862 -13.332162 8.835983 4.865192 -15.279237 -6.751809 25.201477 3.940064 -5.471558 -8.135591 1.439836 5.474297 -25.757664 0.506979 -2.749044 0.000000 0.000000 0.000000 2.621575 -15.192936 7.458299 2.310486 5.192119 0.925466 5.811635 9.290831 2.155322 0.972684 -1.884605 0.652603 0.000000 0.000000 0.000000 4.836749 9.094013 2.201119 -2.927573 0.061400 -2.090230 -7.859367 -2.380567 -11.666089 0.000000 0.000000 0.000000 4.557570 9.381657 1.948068 0.487586 0.203606 -13.436517 0.968268 2.397239 -1.834828 -19.938845 -25.906170 -69.941765 0.845050 -65.909775 -1.250634 0.000000 0.000000 0.000000 4.874671 9.430047 2.261529 0.922338 11.198442 18.655497 -1.868683 2.503755 -1.531437 -45.002327 56.768386 71.175298 -2.433158 41.310558 1.103794 0.000000 0.000000 0.000000 
-1.885227 98.311005 -1.160427 0.000000 0.000000 0.000000 3.262166 -16.560914 8.085315 -39.106835 -7.004658 -10.257562 16.359831 -3.315691 -2.183911 22.594390 -24.954680 8.099346 -2.735807 0.465453 1.796592 0.000000 0.000000 0.000000 3.980260 -14.056457 8.191121 5.766246 -15.258774 -6.123388 23.898410 4.143659 -5.279983 -8.678433 1.921204 4.722457 -25.390977 0.327371 -2.863078 0.000000 0.000000 0.000000 2.616118 -15.518453 6.943288 2.436516 5.410233 1.363892 5.780565 9.256850 2.117172 0.987036 -1.867607 0.611954 0.000000 0.000000 0.000000 4.817273 9.053794 2.159764 -3.528814 0.015151 -2.085071 -8.504443 -2.559756 -11.480394 0.000000 0.000000 0.000000 4.528290 9.342020 1.920389 0.469627 0.156003 -13.500802 0.835752 2.517786 -1.851393 -20.311697 -26.672811 -70.012936 0.846018 -65.919590 -1.282590 0.000000 0.000000 0.000000 4.829427 9.389578 2.226830 0.871331 11.086973 18.551907 -1.839302 2.543954 -1.508404 -44.987522 56.381128 71.001408 -2.469038 42.442147 1.170203 0.000000 0.000000 0.000000 
-1.866643 98.027336 -0.975384 0.000000 0.000000 0.000000 3.171727 -17.309685 7.499408 -39.359471 -7.294577 -9.920890 17.484811 -3.505519 -2.179687 21.692937 -25.344556 7.662628 -2.637224 0.908989 1.322765 0.000000 0.000000 0.000000 4.124683 -14.777649 7.565397 6.734252 -15.305858 -5.441807 22.774038 4.398985 -5.124936 -9.018449 2.492332 3.742875 -25.305952 0.004701 -2.542363 0.000000 0.000000 0.000000 2.671070 -15.747525 6.440361 2.534030 5.658365 1.833856 5.740725 9.235614 2.063486 0.914502 -1.861473 0.594917 0.000000 0.000000 0.000000 4.761927 9.019887 2.112116 -4.176063 -0.064497 -2.061490 -9.194892 -2.673304 -11.279899 0.000000 0.000000 0.000000 4.481015 9.312751 1.878779 0.450504 0.192907 -13.586795 0.685695 2.559389 -1.843523 -20.527500 -27.482403 -70.032143 0.756267 -65.979122 -1.378834 0.000000 0.000000 0.000000 4.771641 9.351574 2.173997 0.807371 10.951928 18.392576 -1.771023 2.608890 -1.502860 -44.841257 55.859865 70.738985 -2.523838 43.713231 1.242731 0.000000 0.000000 0.000000 
-1.838808 97.777672 -0.812538 0.000000 0.000000 0.000000 3.173561 -17.950967 6.966982 -39.655467 -7.621456 -9.548414 18.522338 -3.736537 -2.146918 20.834181 -25.726199 7.174407 -2.550419 1.419950 0.777713 0.000000 0.000000 0.000000 4.211990 -15.383440 7.003343 7.794401 -15.445093 -4.846119 21.979901 4.581974 -5.046699 -9.461442 3.160388 2.695229 -24.811606 -0.360887 -1.932907 0.000000 0.000000 0.000000 2.817093 -15.850185 5.977858 2.615577 5.902298 2.297083 5.688251 9.223441 1.998116 0.813932 -1.873846 0.558645 0.000000 0.000000 0.000000 4.673304 8.983147 2.067364 -4.794433 -0.175403 -2.015548 -9.872656 -2.752798 -11.087828 0.000000 0.000000 0.000000 4.404493 9.285681 1.824010 0.427305 0.288539 -13.679727 0.547428 2.538667 -1.817783 -20.696373 -28.276744 -70.050010 0.613736 -66.080414 -1.494119 0.000000 0.000000 0.000000 4.710184 9.315698 2.105904 0.738420 10.780617 18.176697 -1.698855 2.654442 -1.507362 -44.663491 55.209211 70.491090 -2.585709 45.036020 1.298431 0.000000 0.000000 0.000000 
-1.802812 97.602318 -0.690521 0.000000 0.000000 0.000000 3.260278 -18.439387 6.489688 -40.035403 -7.932238 -9.117370 19.374953 -4.029324 -2.123228 20.154247 -26.120752 6.606563 -2.656743 1.988077 0.294713 0.000000 0.000000 0.000000 4.248615 -15.847420 6.505417 8.758957 -15.733807 -4.439309 21.538392 4.611941 -5.028506 -10.121933 3.814726 1.942554 -23.741218 -0.582188 -1.413553 0.000000 0.000000 0.000000 3.014957 -15.876896 5.570167 2.713838 6.112413 2.730252 5.631704 9.204951 1.929638 0.704648 -1.882278 0.586938 0.000000 0.000000 0.000000 4.553482 8.927816 2.036111 -5.314234 -0.292585 -1.935167 -10.488821 -2.791117 -10.918564 0.000000 0.000000 0.000000 4.313265 9.243220 1.762851 0.399459 0.407260 -13.756350 0.391137 2.452970 -1.786255 -20.915036 -29.020985 -70.120983 0.478365 -66.174916 -1.574195 0.000000 0.000000 0.000000 4.660142 9.279287 2.028909 0.661450 10.589108 17.936454 -1.595289 2.720063 -1.505320 -44.507586 54.490604 70.316572 -2.648243 46.317186 1.333546 0.000000 0.000000 0.000000 
-1.774766 97.475739 -0.643284 0.000000 0.000000 0.000000 3.450220 -18.924052 6.102418 -40.492978 -8.122878 -8.630182 20.026294 -4.220382 -2.135858 19.709508 -26.428464 6.107903 -2.915762 2.604457 -0.030887 0.000000 0.000000 0.000000 4.305773 -16.296119 6.090381 9.234472 -16.165372 -4.286178 21.420629 4.609011 -5.098467 -10.717880 4.318083 2.510555 -23.759875 -0.485136 -1.534509 0.000000 0.000000 0.000000 3.227180 -15.864135 5.214859 2.809899 6.267154 3.092866 5.578141 9.157785 1.869064 0.665619 -1.906926 0.567435 0.000000 0.000000 0.000000 4.419851 8.843006 2.023666 -5.696077 -0.389472 -1.820019 -11.054871 -2.768575 -10.753027 0.000000 0.000000 0.000000 4.219853 9.174238 1.712204 0.366446 0.483291 -13.784790 0.247132 2.332553 -1.765916 -21.209423 -29.674201 -70.270783 0.407605 -66.214381 -1.581888 0.000000 0.000000 0.000000 4.631578 9.223149 1.961405 0.574586 10.412552 17.709125 -1.473337 2.812664 -1.415519 -44.406615 53.829137 70.211100 -2.709866 47.467704 1.361991 0.000000 0.000000 0.000000 
-1.734528 97.368515 -0.652145 0.000000 0.000000 0.000000 3.710013 -19.542973 5.780181 -40.855675 -7.998302 -8.052225 20.541227 -4.138893 -2.178539 19.495378 -26.526846 5.890814 -3.072208 3.258557 -0.261882 0.000000 0.000000 0.000000 4.326357 -16.751862 5.733021 9.097917 -16.593687 -4.258065 21.690972 4.566363 -5.316134 -11.117331 4.578460 4.532780 -25.240810 -0.016380 -2.397553 0.000000 0.000000 0.000000 3.398979 -15.823730 4.913089 2.944492 6.368878 3.318206 5.524765 9.075651 1.821354 0.680786 -1.906524 0.544389 0.000000 0.000000 0.000000 4.294992 8.721934 2.031132 -5.920095 -0.477063 -1.676743 -11.610768 -2.655274 -10.568078 0.000000 0.000000 0.000000 4.147875 9.070555 1.687103 0.331878 0.477475 -13.759135 0.070162 2.250852 -1.798486 -21.542082 -30.191219 -70.476829 0.405194 -66.208384 -1.516744 0.000000 0.000000 0.000000 4.632604 9.133382 1.910955 0.491000 10.275474 17.506757 -1.331370 2.945932 -1.287640 -44.339235 53.307154 70.099700 -2.781091 48.480379 1.401133 0.000000 0.000000 0.000000 
